<?xml version="1.0" encoding="UTF-8"?>
<svg id="Layer_1" data-name="Layer 1" xmlns="http://www.w3.org/2000/svg" viewBox="0 0 44.44 45.6">
  <defs>
    <style>
      .cls-1 {
        fill: #026779;
        stroke: #07677a;
        stroke-miterlimit: 10;
        stroke-width: 3px;
      }
    </style>
  </defs>
  <path class="cls-1" d="M11.33,1.54s-.44.07-.54.64c0,0-.84,4.09-2.35,5.87,0,0-2.11,3.19-5.97,3.56,0,0-.94,0-.97.4,0,0-.1.5.91.64,0,0,3.19.91,5.33,3.09,0,0,1.85,1.34,3.22,5.84,0,0,.1.84.37.84,0,0,.23.1.57-.84,0,0,.17-2.38,2.85-5.54,0,0,2.08-2.48,5.94-3.32,0,0-.03.2.64-.4,0,0,.07-.47-.7-.54,0,0-2.42-.17-5.17-2.38,0,0-2.11-1.44-3.49-7.05,0,0-.03-.6-.64-.81Z"/>
  <path class="cls-1" d="M32.94,12.43s-.44.07-.54.64c0,0-.84,4.09-2.35,5.87,0,0-2.11,3.19-5.97,3.56,0,0-.94,0-.97.4,0,0-.1.5.91.64,0,0,3.19.91,5.33,3.09,0,0,1.85,1.34,3.22,5.84,0,0,.1.84.37.84,0,0,.23.1.57-.84,0,0,.17-2.38,2.85-5.54,0,0,2.08-2.48,5.94-3.32,0,0-.03.2.64-.4,0,0,.07-.47-.7-.54,0,0-2.42-.17-5.17-2.38,0,0-2.11-1.44-3.49-7.05,0,0-.03-.6-.64-.81Z"/>
  <path class="cls-1" d="M16.77,23.23s-.44.07-.54.64c0,0-.84,4.09-2.35,5.87,0,0-2.11,3.19-5.97,3.56,0,0-.94,0-.97.4,0,0-.1.5.91.64,0,0,3.19.91,5.33,3.09,0,0,1.85,1.34,3.22,5.84,0,0,.1.84.37.84,0,0,.23.1.57-.84,0,0,.17-2.38,2.85-5.54,0,0,2.08-2.48,5.94-3.32,0,0-.03.2.64-.4,0,0,.07-.47-.7-.54,0,0-2.42-.17-5.17-2.38,0,0-2.11-1.44-3.49-7.05,0,0-.03-.6-.64-.81Z"/>
</svg>